<?xml version="1.0" encoding="utf-8"?>
<!-- Generator: Adobe Illustrator 17.1.0, SVG Export Plug-In . SVG Version: 6.00 Build 0)  -->
<!DOCTYPE svg PUBLIC "-//W3C//DTD SVG 1.1//EN" "http://www.w3.org/Graphics/SVG/1.1/DTD/svg11.dtd">
<svg version="1.1" id="Layer_1" xmlns="http://www.w3.org/2000/svg" xmlns:xlink="http://www.w3.org/1999/xlink" x="0px" y="0px"
	 viewBox="0 0 600 600" enable-background="new 0 0 600 600" xml:space="preserve">
<g>
	<polygon fill="#231F20" points="305.7,374.9 305.7,362.9 328.4,362.9 333.9,348.2 284.3,348.2 284.3,416.6 305.7,416.6 
		305.7,388.7 318.7,388.7 323.9,374.9 	"/>
	<polygon fill="#231F20" points="370.9,367.3 389.5,416.6 392.1,416.6 392.1,348.2 370.9,348.2 	"/>
	<path fill="#231F20" d="M453,396.8c-0.5-1-1.5-2.4-3-4.3c-1.5-1.8-2.6-3-3.4-3.6c-1.2-0.8-3-1.7-5.5-2.5c3.1-0.7,5.6-1.6,7.4-2.7
		c2.8-1.7,5.1-3.9,6.7-6.7c1.6-2.7,2.4-6,2.4-9.8c0-4.4-1.1-8-3.2-11.1c-2.1-3-4.9-5.1-8.3-6.2c-3.5-1.1-8.4-1.7-15-1.7H396v68.4
		h21.2v-27.7h1.9c1.9,0,3.7,0.5,5.2,1.6c1.1,0.8,2.4,2.6,3.8,5.3l11.3,20.9h23.9L453,396.8z M435.1,372.9c-0.9,1.2-2,1.9-3.4,2.1
		c-2.8,0.6-4.6,0.9-5.6,0.9h-8.9V362h9.3c3.9,0,6.5,0.6,7.9,1.8c1.4,1.2,2.1,2.9,2.1,5.1C436.5,370.4,436,371.7,435.1,372.9z"/>
	<polygon fill="#231F20" points="280.5,348.2 267.5,348.2 267.5,386.1 241.8,348.2 222.1,348.2 222.1,356.8 222.1,416.6 
		241.9,416.6 241.9,409.7 241.9,379.1 267.5,416.6 280.5,416.6 280.5,416.6 280.5,348.2 	"/>
	<path fill="#231F20" d="M213.1,348.2h-15.6H190l-5.5,14.7l-4.5,11.9l-5.2,13.8l-8.4,22.3l-2,5.6h21.5l3.3-11.3h24l3.1,11.3h2.6
		v-53.3L213.1,348.2z M193.8,390.5l7.5-24.6l7.5,24.6H193.8z"/>
	<path fill="#231F20" d="M367.5,367.3l-7.2-19.1h-20.3h-2.8l-5.5,14.7l-4.5,11.9l-5.2,13.8l-10.5,27.9h21.6l3.3-11.3h24l3.4,11.3
		h3.6H386L367.5,367.3z M341.1,390.5l7.5-24.6l7.5,24.6H341.1z"/>
	<polygon fill="#231F20" points="158.2,374.9 158.2,362.9 180.9,362.9 186.4,348.2 136.8,348.2 136.8,416.6 158.2,416.6 
		158.2,388.7 171.2,388.7 176.4,374.9 	"/>
</g>
<path fill="#B22024" d="M368.2,311.9c0,4.4-3.5,7.9-7.9,7.9H239.8c-4.4,0-7.9-3.5-7.9-7.9V191.4c0-4.4,3.5-7.9,7.9-7.9h120.5
	c4.4,0,7.9,3.5,7.9,7.9V311.9z"/>
<g>
	<g>
		<polygon fill="#FFFFFF" points="272.8,198.1 353.4,198.1 337,218.8 292.2,218.8 292.2,239.9 320.7,239.9 305.3,259.7 291.5,259.7 
			291.5,276.9 272.8,300.4 		"/>
	</g>
	<path fill="#FFFFFF" d="M277.7,284.9c1.4,3.2,1.1,6.8-0.6,10.1l-4.3,5.5c-1.4,1.1-3.2,2.2-5,3c-8.4,3.6-17.5,1.3-20.3-5.3
		c-2.9-6.6,1.6-14.9,9.9-18.5C265.7,275.9,274.8,278.3,277.7,284.9z"/>
</g>
</svg>
