<?xml version="1.0" encoding="utf-8"?>
<!-- Generator: Adobe Illustrator 17.1.0, SVG Export Plug-In . SVG Version: 6.00 Build 0)  -->
<!DOCTYPE svg PUBLIC "-//W3C//DTD SVG 1.1//EN" "http://www.w3.org/Graphics/SVG/1.1/DTD/svg11.dtd">
<svg version="1.1" id="Layer_1" xmlns="http://www.w3.org/2000/svg" xmlns:xlink="http://www.w3.org/1999/xlink" x="0px" y="0px"
	 viewBox="0 0 800 800" enable-background="new 0 0 800 800" xml:space="preserve">
<circle fill="#CB986C" cx="394.1" cy="196.5" r="35.6"/>
<g>
	<g>
		<polygon fill="#FFFFFF" points="383.1,173.9 415.8,173.9 409.1,182.3 390.9,182.3 390.9,190.8 402.5,190.8 396.2,198.9 
			390.6,198.9 390.7,205.8 383.1,215.4 		"/>
	</g>
	<path fill="#FFFFFF" d="M385,209.1c0.6,1.3,0.4,2.8-0.2,4.1l-1.7,2.2c-0.6,0.4-1.3,0.9-2,1.2c-3.4,1.5-7.1,0.5-8.2-2.1
		c-1.2-2.7,0.6-6,4-7.5C380.2,205.4,383.9,206.4,385,209.1z"/>
</g>
<circle fill="#8F81BC" cx="575.6" cy="379.1" r="35.6"/>
<g>
	<g>
		<polygon fill="#FFFFFF" points="564.6,356.5 597.3,356.5 590.6,364.9 572.5,364.9 572.5,373.5 584,373.5 577.8,381.5 572.2,381.5 
			572.2,388.4 564.6,398 		"/>
	</g>
	<path fill="#FFFFFF" d="M566.6,391.7c0.6,1.3,0.4,2.8-0.2,4.1l-1.7,2.2c-0.6,0.4-1.3,0.9-2,1.2c-3.4,1.5-7.1,0.5-8.2-2.1
		c-1.2-2.7,0.6-6,4-7.5C561.8,388,565.5,389,566.6,391.7z"/>
</g>
<circle fill="#7DBD7E" cx="214.1" cy="379.1" r="35.6"/>
<g>
	<g>
		<polygon fill="#FFFFFF" points="203.1,356.5 235.7,356.5 229.1,364.9 210.9,364.9 210.9,373.5 222.5,373.5 216.2,381.5 
			210.6,381.5 210.7,388.4 203.1,398 		"/>
	</g>
	<path fill="#FFFFFF" d="M205,391.7c0.6,1.3,0.4,2.8-0.2,4.1l-1.7,2.2c-0.6,0.4-1.3,0.9-2,1.2c-3.4,1.5-7.1,0.5-8.2-2.1
		c-1.2-2.7,0.6-6,4-7.5C200.2,388,203.9,389,205,391.7z"/>
</g>
<circle fill="#E57676" cx="394.1" cy="558.1" r="35.6"/>
<g>
	<g>
		<polygon fill="#FFFFFF" points="383.1,535.5 415.8,535.5 409.1,543.8 390.9,543.8 390.9,552.4 402.5,552.4 396.2,560.4 
			390.6,560.4 390.7,567.4 383.1,576.9 		"/>
	</g>
	<path fill="#FFFFFF" d="M385,570.6c0.6,1.3,0.4,2.8-0.2,4.1l-1.7,2.2c-0.6,0.4-1.3,0.9-2,1.2c-3.4,1.5-7.1,0.5-8.2-2.1
		c-1.2-2.7,0.6-6,4-7.5C380.2,567,383.9,567.9,385,570.6z"/>
</g>
<g>
	<circle fill="#333333" cx="394.1" cy="379.1" r="88"/>
	<g>
		<g>
			<polygon fill="#FFFFFF" points="366.8,323.3 447.5,323.3 431,344 386.2,344 386.2,365.1 414.7,365.1 399.3,384.9 385.5,384.9 
				385.6,402.1 366.8,425.6 			"/>
		</g>
		<path fill="#FFFFFF" d="M371.7,410.1c1.4,3.2,1.1,6.8-0.6,10.1l-4.3,5.5c-1.4,1.1-3.2,2.2-5,3c-8.4,3.6-17.5,1.3-20.3-5.3
			c-2.9-6.6,1.6-14.9,9.9-18.5C359.8,401.1,368.9,403.5,371.7,410.1z"/>
	</g>
</g>
<circle display="none" fill="none" stroke="#F7941E" stroke-miterlimit="10" cx="394.1" cy="379.1" r="180.8"/>
</svg>
